<svg width="28" height="28" viewBox="0 0 28 28" fill="none" xmlns="http://www.w3.org/2000/svg">
<path d="M21.12 5.28008C20.8035 5.28008 20.4942 5.37392 20.2311 5.54973C19.968 5.72554 19.7629 5.97543 19.6418 6.26779C19.5207 6.56015 19.489 6.88186 19.5507 7.19223C19.6125 7.50259 19.7649 7.78769 19.9886 8.01145C20.2124 8.23522 20.4975 8.3876 20.8078 8.44934C21.1182 8.51107 21.4399 8.47939 21.7323 8.35829C22.0246 8.23719 22.2745 8.03211 22.4503 7.76899C22.6262 7.50588 22.72 7.19653 22.72 6.88008C22.72 6.45573 22.5514 6.04877 22.2514 5.74871C21.9513 5.44865 21.5443 5.28008 21.12 5.28008ZM27.2533 8.50675C27.2272 7.4005 27.02 6.30602 26.64 5.26675C26.3025 4.37681 25.7746 3.57136 25.0933 2.90675C24.4331 2.22332 23.6261 1.69898 22.7333 1.37341C21.6969 0.981629 20.6011 0.769695 19.4933 0.746748C18.08 0.666748 17.6267 0.666748 14 0.666748C10.3733 0.666748 9.91999 0.666748 8.50666 0.746748C7.39886 0.769695 6.30311 0.981629 5.26666 1.37341C4.37596 1.70308 3.56981 2.22686 2.90666 2.90675C2.22322 3.56698 1.69889 4.374 1.37332 5.26675C0.981538 6.30321 0.769603 7.39895 0.746656 8.50675C0.666656 9.92008 0.666656 10.3734 0.666656 14.0001C0.666656 17.6267 0.666656 18.0801 0.746656 19.4934C0.769603 20.6012 0.981538 21.697 1.37332 22.7334C1.69889 23.6262 2.22322 24.4332 2.90666 25.0934C3.56981 25.7733 4.37596 26.2971 5.26666 26.6267C6.30311 27.0185 7.39886 27.2305 8.50666 27.2534C9.91999 27.3334 10.3733 27.3334 14 27.3334C17.6267 27.3334 18.08 27.3334 19.4933 27.2534C20.6011 27.2305 21.6969 27.0185 22.7333 26.6267C23.6261 26.3012 24.4331 25.7768 25.0933 25.0934C25.7763 24.4302 26.3044 23.6243 26.64 22.7334C27.02 21.6941 27.2272 20.5997 27.2533 19.4934C27.2533 18.0801 27.3333 17.6267 27.3333 14.0001C27.3333 10.3734 27.3333 9.92008 27.2533 8.50675ZM24.8533 19.3334C24.8439 20.1798 24.6906 21.0184 24.4 21.8134C24.1871 22.3937 23.8452 22.918 23.4 23.3467C22.9672 23.7871 22.4441 24.1283 21.8667 24.3467C21.0717 24.6373 20.233 24.7906 19.3867 24.8001C18.0533 24.8667 17.56 24.8801 14.0533 24.8801C10.5467 24.8801 10.0533 24.8801 8.71999 24.8001C7.84112 24.8173 6.96592 24.682 6.13332 24.4001C5.58157 24.1698 5.08253 23.8296 4.66666 23.4001C4.22411 22.9717 3.88645 22.447 3.67999 21.8667C3.35338 21.0606 3.17279 20.2028 3.14666 19.3334C3.14666 18.0001 3.06666 17.5067 3.06666 14.0001C3.06666 10.4934 3.06666 10.0001 3.14666 8.66675C3.15152 7.80138 3.30951 6.94371 3.61332 6.13341C3.84805 5.57063 4.20834 5.06896 4.66666 4.66675C5.07055 4.207 5.5715 3.84268 6.13332 3.60008C6.94586 3.30605 7.80258 3.15274 8.66666 3.14675C9.99999 3.14675 10.4933 3.06675 14 3.06675C17.5067 3.06675 18 3.06675 19.3333 3.14675C20.1797 3.1562 21.0183 3.30949 21.8133 3.60008C22.4192 3.82495 22.963 4.19054 23.4 4.66675C23.8356 5.07744 24.1768 5.57787 24.4 6.13341C24.6966 6.94526 24.85 7.80243 24.8533 8.66675C24.92 10.0001 24.9333 10.4934 24.9333 14.0001C24.9333 17.5067 24.92 18.0001 24.8533 19.3334ZM14 7.16008C12.6477 7.16272 11.3266 7.56612 10.2035 8.3193C9.08045 9.07249 8.20583 10.1417 7.69017 11.3918C7.17451 12.6418 7.04095 14.0167 7.30638 15.3427C7.57181 16.6686 8.2243 17.8861 9.18142 18.8414C10.1385 19.7966 11.3573 20.4468 12.6838 20.7096C14.0103 20.9725 15.3849 20.8362 16.6339 20.3181C17.883 19.8 18.9505 18.9233 19.7015 17.7988C20.4525 16.6742 20.8533 15.3523 20.8533 14.0001C20.8551 13.1002 20.6789 12.2089 20.335 11.3774C19.991 10.5458 19.4861 9.79049 18.8491 9.15481C18.2122 8.51914 17.4559 8.01565 16.6237 7.67332C15.7915 7.33099 14.8998 7.15656 14 7.16008ZM14 18.4401C13.1218 18.4401 12.2634 18.1797 11.5333 17.6918C10.8031 17.2039 10.234 16.5105 9.89796 15.6992C9.56191 14.8879 9.47398 13.9952 9.6453 13.1339C9.81662 12.2726 10.2395 11.4815 10.8604 10.8605C11.4814 10.2396 12.2725 9.81671 13.1338 9.64539C13.9951 9.47408 14.8878 9.562 15.6991 9.89806C16.5104 10.2341 17.2038 10.8032 17.6917 11.5333C18.1796 12.2635 18.44 13.1219 18.44 14.0001C18.44 14.5831 18.3251 15.1605 18.102 15.6992C17.8789 16.2379 17.5518 16.7273 17.1395 17.1396C16.7273 17.5519 16.2378 17.879 15.6991 18.1021C15.1604 18.3252 14.5831 18.4401 14 18.4401Z" fill="black"/>
</svg>
