<svg width="30" height="30" viewBox="0 0 30 30" fill="none" xmlns="http://www.w3.org/2000/svg">
<g clip-path="url(#clip0_1873_464)">
<path d="M12.6562 17.5552L18.75 11.6646" stroke="white" stroke-width="2" stroke-linecap="round" stroke-linejoin="round"/>
<path d="M26.2136 5.56771C26.2588 5.41269 26.2605 5.24882 26.2184 5.09299C26.1763 4.93715 26.092 4.79497 25.9742 4.68108C25.8564 4.5672 25.7093 4.48572 25.5481 4.44504C25.3869 4.40435 25.2174 4.40594 25.057 4.44962L2.55701 11.0449C2.37332 11.095 2.20982 11.1981 2.08838 11.3404C1.96694 11.4828 1.89334 11.6576 1.87741 11.8414C1.86149 12.0253 1.904 12.2095 1.99927 12.3694C2.09453 12.5292 2.23801 12.6572 2.41052 12.7361L12.6562 17.5551L17.6414 27.4582C17.723 27.6249 17.8554 27.7636 18.0208 27.8557C18.1862 27.9478 18.3768 27.9889 18.567 27.9735C18.7572 27.9581 18.938 27.887 19.0852 27.7696C19.2325 27.6522 19.3392 27.4941 19.391 27.3166L26.2136 5.56771Z" stroke="white" stroke-width="2" stroke-linecap="round" stroke-linejoin="round"/>
</g>
<defs>
<clipPath id="clip0_1873_464">
<rect width="30" height="29" fill="white" transform="translate(0 0.789551)"/>
</clipPath>
</defs>
</svg>
